<?xml version="1.0" encoding="iso-8859-1"?>
<!-- Uploaded to: SVG Repo, www.svgrepo.com, Generator: SVG Repo Mixer Tools -->
<svg fill="#000000" height="800px" width="800px" version="1.1" id="Capa_1" xmlns="http://www.w3.org/2000/svg" xmlns:xlink="http://www.w3.org/1999/xlink" 
	 viewBox="0 0 489.084 489.084" xml:space="preserve">
<g>
	<path d="M472.706,12.384c-118-38.3-203.6,26.4-228.1,89.1c-23.9-63-109.8-128.5-228.4-90c-17.1,5.7-16.6,19.7-15.5,24.9
		c9.8,87.4,104.2,162.1,223.3,133v168.1c-96.7,7-170,62.1-170,130.9c0,11.4,9.3,20.7,20.7,20.7h341c11.4,0,20.7-9.3,19.7-20.7
		c0-68.7-73.3-123.9-170-130.9v-167.1c118.9,28.7,213.1-45.9,222.9-133.2C489.306,31.984,490.806,17.584,472.706,12.384z
		 M45.206,44.584L45.206,44.584c85.3-19.2,146.3,21.4,164.8,85C138.206,145.984,66.606,118.284,45.206,44.584z M390.906,448.684
		h-292.3c15.5-40.4,76.7-70.5,146.1-70.5S375.306,408.184,390.906,448.684z M443.706,45.484c-21.4,73.8-93,101.4-164.8,85
		C297.406,66.884,358.406,26.284,443.706,45.484L443.706,45.484z"/>
</g>
</svg>