<svg width="23" height="24" viewBox="0 0 23 24" fill="none" xmlns="http://www.w3.org/2000/svg">
<path d="M11.3489 13.5921C13.5472 13.5921 15.3292 11.8101 15.3292 9.61178C15.3292 7.4135 13.5472 5.63143 11.3489 5.63143C9.1506 5.63143 7.36853 7.4135 7.36853 9.61178C7.36853 11.8101 9.1506 13.5921 11.3489 13.5921Z" stroke="white" stroke-opacity="0.7" stroke-width="1.71" stroke-linecap="round" stroke-linejoin="round"/>
<path d="M4.55042 19.8015C5.26089 18.6353 6.25944 17.6714 7.45004 17.0027C8.64065 16.3338 9.98327 15.9825 11.3489 15.9825C12.7145 15.9825 14.0571 16.3338 15.2477 17.0027C16.4383 17.6714 17.4368 18.6353 18.1473 19.8015" stroke="white" stroke-opacity="0.7" stroke-width="1.71" stroke-linecap="round" stroke-linejoin="round"/>
<path d="M11.3489 22.3489C17.0646 22.3489 21.6979 17.7156 21.6979 12C21.6979 6.28445 17.0646 1.65107 11.3489 1.65107C5.63338 1.65107 1 6.28445 1 12C1 17.7156 5.63338 22.3489 11.3489 22.3489Z" stroke="white" stroke-opacity="0.7" stroke-width="1.71" stroke-linecap="round" stroke-linejoin="round"/>
</svg>
